HIERARCHY
ROOT Hips
{
 OFFSET 0.000000 0.000000 0.000000
 CHANNELS 6 Xposition Yposition Zposition Yrotation Xrotation Zrotation
 JOINT Chest
 {
  OFFSET 0.000000 9.588913 -0.003946
  CHANNELS 3 Yrotation Xrotation Zrotation
  JOINT Chest2
  {
   OFFSET 0.000000 9.541882 0.008053
   CHANNELS 3 Yrotation Xrotation Zrotation
   JOINT Chest3
   {
    OFFSET 0.000000 9.501360 0.000000
    CHANNELS 3 Yrotation Xrotation Zrotation
    JOINT Chest4
    {
     OFFSET 0.000000 9.491660 0.000000
     CHANNELS 3 Yrotation Xrotation Zrotation
     JOINT Neck
     {
      OFFSET 0.000000 14.331917 0.000000
      CHANNELS 3 Yrotation Xrotation Zrotation
      JOINT Head
      {
       OFFSET 0.000000 8.884799 0.017034
       CHANNELS 3 Yrotation Xrotation Zrotation
       End Site
       {
        OFFSET 0.000000 16.896195 0.008993
       }
      }
     }
     JOINT RightCollar
     {
      OFFSET -2.923010 9.499495 0.000000
      CHANNELS 3 Yrotation Xrotation Zrotation
      JOINT RightShoulder
      {
       OFFSET -13.795216 0.000000 0.000000
       CHANNELS 3 Yrotation Xrotation Zrotation
       JOINT RightElbow
       {
        OFFSET -30.272209 0.000000 0.000000
        CHANNELS 3 Yrotation Xrotation Zrotation
        JOINT RightWrist
        {
         OFFSET -24.478199 0.000000 0.000000
         CHANNELS 3 Yrotation Xrotation Zrotation
         End Site
         {
          OFFSET -18.090752 0.000000 0.000000
         }
        }
       }
      }
     }
     JOINT LeftCollar
     {
      OFFSET 2.923010 9.499495 0.000000
      CHANNELS 3 Yrotation Xrotation Zrotation
      JOINT LeftShoulder
      {
       OFFSET 13.795216 0.000000 0.000000
       CHANNELS 3 Yrotation Xrotation Zrotation
       JOINT LeftElbow
       {
        OFFSET 30.272209 0.000000 0.000000
        CHANNELS 3 Yrotation Xrotation Zrotation
        JOINT LeftWrist
        {
         OFFSET 24.478199 0.000000 0.000000
         CHANNELS 3 Yrotation Xrotation Zrotation
         End Site
         {
          OFFSET 18.090752 0.000000 0.000000
         }
        }
       }
      }
     }
    }
   }
  }
 }
 JOINT RightHip
 {
  OFFSET -7.826875 0.019532 0.001973
  CHANNELS 3 Yrotation Xrotation Zrotation
  JOINT RightKnee
  {
   OFFSET 0.000000 -40.546152 -0.001885
   CHANNELS 3 Yrotation Xrotation Zrotation
   JOINT RightAnkle
   {
    OFFSET 0.000000 -39.417092 -0.003189
    CHANNELS 3 Yrotation Xrotation Zrotation
    JOINT RightToe
    {
     OFFSET 0.000000 -7.579396 17.243563
     CHANNELS 3 Yrotation Xrotation Zrotation
     End Site
     {
      OFFSET 0.000000 -1.500329 6.694466
     }
    }
   }
  }
 }
 JOINT LeftHip
 {
  OFFSET 7.826875 0.019532 0.001973
  CHANNELS 3 Yrotation Xrotation Zrotation
  JOINT LeftKnee
  {
   OFFSET 0.000000 -40.546152 -0.001885
   CHANNELS 3 Yrotation Xrotation Zrotation
   JOINT LeftAnkle
   {
    OFFSET 0.000000 -39.417092 -0.003189
    CHANNELS 3 Yrotation Xrotation Zrotation
    JOINT LeftToe
    {
     OFFSET 0.000000 -7.579396 17.243563
     CHANNELS 3 Yrotation Xrotation Zrotation
     End Site
     {
      OFFSET 0.000000 -1.500329 6.694466
     }
    }
   }
  }
 }
}
MOTION
Frames: 17
Frame Time: 0.008333
0.000000 87.345680 0.000000 0.000000 -5.767889 0.000000 0.000000 11.653876 0.000000 0.000000 -5.885988 0.000000 0.000000 -0.000000 0.000000 0.000000 -0.000000 0.000000 0.000000 12.528808 0.000000 0.000000 0.711711 0.000000 0.000000 -0.000000 0.000000 0.000000 -0.000000 0.000000 2.309063 -0.000000 0.000000 -2.309063 -0.000000 -0.000000 0.000000 -0.000000 0.000000 0.000000 0.000000 0.000000 -2.309063 0.000000 0.000000 2.309063 -0.000000 0.000000 0.000000 8.520374 0.000000 0.000000 1.905768 0.000000 -0.000000 -4.658254 0.000000 0.000000 -0.000000 0.000000 0.000000 8.520374 0.000000 0.000000 1.905768 0.000000 -0.000000 -4.658254 0.000000 0.000000 -0.000000 0.000000
-8.045575 88.748312 -23.657493 136.963115 -10.074577 1.220021 -0.071329 6.344430 0.701836 -0.002041 0.234453 0.047135 -0.003467 0.413218 0.083068 0.007712 5.935581 1.194842 0.795392 21.584109 0.802599 1.215841 4.285618 1.230900 0.001840 2.809084 -2.750124 -14.447812 2.837707 89.616512 5.191560 -9.650021 0.913966 -0.973046 -14.810851 2.153392 -3.957653 2.374801 -1.278754 5.288951 -2.020322 -88.448587 -3.812726 2.749850 -1.283757 2.459106 3.816336 -0.960489 -13.681291 11.725203 -11.460849 20.461884 3.564103 -2.113087 11.404193 -9.397240 4.318652 0.450552 -1.019632 0.178332 13.228100 12.469469 2.791241 7.473166 0.246136 -0.769324 4.245979 -4.477834 -0.088077 -0.027195 0.944025 0.091857
-8.116772 88.745696 -23.755854 136.916062 -10.112588 1.193213 -0.054545 6.403143 0.674742 -0.001016 0.238197 0.047824 -0.001657 0.419705 0.084265 0.034731 5.980076 1.203648 0.800575 21.575510 0.811379 1.222728 4.269603 1.245306 0.005307 2.793510 -2.749174 -14.484841 2.883794 89.551855 5.314023 -9.603643 0.959756 -0.956613 -14.811157 2.148761 -3.962685 2.371931 -1.287653 5.304543 -2.035281 -88.420574 -3.809756 2.788584 -1.273410 2.499960 3.879442 -1.003527 -13.744766 11.526746 -11.486339 20.576437 3.990454 -2.091993 11.492248 -9.563454 4.378451 0.414337 -1.048796 0.148235 13.129688 12.544824 2.746175 7.543435 0.251785 -0.823466 4.320017 -4.537576 -0.014091 -0.035228 0.920806 0.091366
-8.198686 88.741515 -23.869227 136.858523 -10.153123 1.160255 -0.029278 6.464326 0.652919 0.000158 0.242520 0.048560 0.000416 0.427192 0.085539 0.065100 6.031051 1.212259 0.807194 21.564489 0.819514 1.232379 4.249090 1.258131 0.015110 2.780968 -2.742461 -14.524669 2.930920 89.487695 5.446913 -9.579691 1.010586 -0.946644 -14.808806 2.148675 -3.967319 2.362313 -1.288145 5.317968 -2.048441 -88.404045 -3.812362 2.824173 -1.253600 2.555913 3.932441 -1.045178 -13.802189 11.309308 -11.509841 20.704400 4.461659 -2.059791 11.553775 -9.742662 4.438698 0.384480 -1.083117 0.121066 13.059257 12.631472 2.703175 7.572155 0.247580 -0.879060 4.406011 -4.602165 0.071412 -0.039354 0.901339 0.089394
-8.288343 88.735264 -23.993253 136.789076 -10.193524 1.125107 0.002261 6.525724 0.634639 0.001399 0.247189 0.049236 0.002606 0.435276 0.086706 0.096512 6.085802 1.218583 0.816055 21.553042 0.825303 1.246746 4.227783 1.266078 0.028242 2.769148 -2.734808 -14.564332 2.982381 89.426103 5.588291 -9.568808 1.065575 -0.945453 -14.802652 2.153292 -3.959180 2.348139 -1.280961 5.318217 -2.057765 -88.397181 -3.815577 2.843488 -1.229914 2.616584 3.971432 -1.083652 -13.847505 11.064480 -11.531263 20.853481 4.987090 -2.012034 11.585748 -9.940486 4.497113 0.361029 -1.120223 0.094717 13.025982 12.722207 2.660032 7.597412 0.240344 -0.930820 4.468467 -4.672301 0.156393 -0.040532 0.885997 0.091964
-8.396425 88.722731 -24.107725 136.598130 -10.103260 1.104323 0.146197 6.457437 0.625371 0.002638 0.251989 0.049848 0.004790 0.443582 0.087758 0.127183 6.141628 1.223020 0.826887 21.543683 0.826371 1.266012 4.210364 1.264933 0.044982 2.760482 -2.733226 -14.600253 3.037464 89.370921 5.734083 -9.562388 1.124906 -0.948860 -14.797274 2.157934 -3.932659 2.335538 -1.270700 5.304452 -2.065121 -88.395545 -3.817152 2.842688 -1.210043 2.673159 3.998059 -1.115043 -13.758390 10.653719 -11.589385 21.032152 5.447815 -1.896453 11.767076 -10.080737 4.638265 0.170984 -1.151316 -0.003184 13.139152 12.681752 2.593027 7.655727 0.238663 -0.975076 4.469373 -4.751056 0.230238 -0.038533 0.880073 0.103429
-8.491371 88.711568 -24.241766 136.502597 -10.152442 1.068308 0.179990 6.525220 0.616869 0.003937 0.256976 0.050374 0.007079 0.452209 0.088658 0.158567 6.199174 1.225078 0.840891 21.535636 0.823220 1.292211 4.195384 1.255266 0.070028 2.756971 -2.737365 -14.635136 3.091988 89.326806 5.884719 -9.551893 1.184632 -0.955340 -14.801431 2.160816 -3.887191 2.326531 -1.254875 5.280710 -2.072721 -88.400256 -3.819643 2.826202 -1.196760 2.723041 4.019822 -1.141002 -13.767785 10.353142 -11.601706 21.206574 6.102862 -1.809144 11.775531 -10.331065 4.658512 0.171962 -1.188210 -0.013179 13.194186 12.778492 2.561705 7.740613 0.243772 -1.015882 4.417156 -4.838327 0.290141 -0.034693 0.875672 0.121535
-8.587484 88.697780 -24.376211 136.391097 -10.200549 1.038016 0.217651 6.594966 0.607608 0.005419 0.262127 0.050763 0.009687 0.461115 0.089317 0.193501 6.258170 1.223843 0.858010 21.525865 0.817345 1.324807 4.177210 1.239779 0.101277 2.757590 -2.747780 -14.669528 3.143383 89.296960 6.043836 -9.533777 1.243023 -0.966388 -14.811981 2.163475 -3.831200 2.319867 -1.231545 5.258326 -2.078824 -88.413861 -3.829581 2.802020 -1.191122 2.766649 4.041405 -1.166355 -13.751923 10.009438 -11.612515 21.377524 6.834536 -1.699941 11.806124 -10.614628 4.655579 0.174806 -1.222702 -0.016989 13.285598 12.873808 2.534909 7.824294 0.253141 -1.066121 4.356695 -4.931062 0.350527 -0.029045 0.875753 0.140802
-8.685237 88.681700 -24.508638 136.269488 -10.240761 1.014326 0.259367 6.663946 0.598003 0.007114 0.267190 0.050887 0.012669 0.469865 0.089511 0.232575 6.315914 1.217038 0.876344 21.512490 0.809606 1.360114 4.152355 1.220551 0.128933 2.762133 -2.764322 -14.700079 3.189949 89.281168 6.210187 -9.510598 1.302822 -0.977233 -14.818969 2.166529 -3.778704 2.316251 -1.202139 5.247836 -2.081096 -88.434199 -3.851691 2.771948 -1.194087 2.804994 4.063180 -1.190303 -13.721647 9.617908 -11.620849 21.536060 7.635823 -1.575731 11.869438 -10.928590 4.638665 0.178005 -1.251684 -0.020666 13.383113 12.962443 2.506914 7.889174 0.262500 -1.129665 4.320233 -5.025205 0.420439 -0.023490 0.879584 0.154878
-8.784890 88.664383 -24.637885 136.145840 -10.272381 0.996824 0.302215 6.732400 0.588930 0.008936 0.272131 0.050624 0.015870 0.478402 0.089027 0.273483 6.372301 1.201984 0.895751 21.494185 0.801061 1.397576 4.118354 1.199523 0.150182 2.771124 -2.781473 -14.726442 3.229231 89.274557 6.382702 -9.485043 1.365601 -0.983291 -14.819711 2.170870 -3.734094 2.311160 -1.167375 5.253480 -2.076297 -88.456544 -3.888015 2.739043 -1.211453 2.842260 4.081836 -1.207349 -13.691731 9.188601 -11.621467 21.677986 8.492237 -1.449316 11.937746 -11.265882 4.633429 0.175758 -1.268618 -0.038228 13.454897 13.046166 2.468728 7.936570 0.264744 -1.199939 4.321814 -5.113695 0.500287 -0.018829 0.885053 0.161479
-8.885701 88.647582 -24.763296 136.023670 -10.300361 0.981173 0.344240 6.802868 0.584352 0.010809 0.277148 0.050011 0.019157 0.487067 0.087927 0.314389 6.429531 1.179144 0.917108 21.470132 0.792883 1.438452 4.073682 1.178564 0.168158 2.781958 -2.796127 -14.750457 3.264778 89.271814 6.564779 -9.456817 1.433084 -0.986126 -14.817057 2.175928 -3.699878 2.295037 -1.132350 5.286450 -2.055621 -88.472282 -3.939750 2.714753 -1.249100 2.881647 4.092212 -1.219145 -13.665642 8.740633 -11.609029 21.822600 9.384559 -1.325602 11.963375 -11.615583 4.661688 0.164202 -1.267590 -0.078655 13.492872 13.129809 2.421976 7.982633 0.256752 -1.270487 4.347075 -5.191494 0.584689 -0.015362 0.889666 0.162887
-8.986436 88.633572 -24.884840 135.904148 -10.333229 0.963471 0.386238 6.879150 0.587993 0.012767 0.282475 0.049122 0.022591 0.496266 0.086344 0.356015 6.489944 1.150017 0.939459 21.440895 0.786042 1.480746 4.019386 1.159695 0.181001 2.790680 -2.807669 -14.773682 3.303077 89.270826 6.755399 -9.425228 1.508214 -0.983156 -14.812771 2.178157 -3.681138 2.264565 -1.104738 5.348822 -2.016378 -88.472696 -4.002070 2.701738 -1.304349 2.921964 4.092958 -1.232499 -13.634730 8.284546 -11.591247 21.985351 10.303264 -1.198372 11.963460 -11.969164 4.726795 0.148284 -1.251372 -0.139762 13.508401 13.219391 2.373281 8.042179 0.240173 -1.336583 4.372499 -5.254860 0.667484 -0.012311 0.889539 0.162579
-9.085744 88.624801 -25.002775 135.791447 -10.379477 0.940742 0.429096 6.964296 0.599690 0.014876 0.288357 0.048037 0.026285 0.506415 0.084417 0.399714 6.555846 1.116215 0.960695 21.408829 0.780641 1.520620 3.959842 1.143707 0.183776 2.796996 -2.812597 -14.794628 3.343866 89.268735 6.945704 -9.392918 1.591400 -0.968636 -14.809056 2.177351 -3.679534 2.225288 -1.087143 5.427844 -1.969188 -88.453480 -4.066526 2.696697 -1.372573 2.964081 4.086039 -1.249380 -13.591097 7.824688 -11.571557 22.146562 11.255175 -1.066601 11.974135 -12.321272 4.826614 0.131409 -1.227907 -0.216998 13.509944 13.320272 2.328535 8.113607 0.217924 -1.397795 4.396915 -5.300170 0.747654 -0.008536 0.880014 0.161953
-9.182467 88.623368 -25.116546 135.693250 -10.440972 0.908153 0.468961 7.056244 0.619188 0.016982 0.294812 0.046864 0.029973 0.517547 0.082332 0.442021 6.627148 1.080134 0.981289 21.378106 0.776225 1.559073 3.902794 1.129679 0.176068 2.801718 -2.805371 -14.808454 3.384151 89.260724 7.126895 -9.363647 1.678834 -0.941637 -14.812570 2.176689 -3.691114 2.185376 -1.078303 5.510672 -1.927518 -88.411499 -4.121961 2.696149 -1.449936 3.005964 4.074628 -1.267456 -13.540177 7.366153 -11.542347 22.292395 12.241453 -0.935938 11.982548 -12.661581 4.969071 0.111668 -1.203240 -0.310630 13.497652 13.430688 2.293128 8.188906 0.192984 -1.452070 4.421358 -5.325165 0.825783 -0.004153 0.857976 0.159256
-9.276130 88.630670 -25.224934 135.617101 -10.511400 0.862311 0.499603 7.148824 0.647100 0.018781 0.301486 0.045704 0.033117 0.529051 0.080270 0.476435 6.699931 1.044476 1.003640 21.353758 0.772233 1.600622 3.857586 1.115952 0.160141 2.804009 -2.782885 -14.813502 3.420613 89.241260 7.291073 -9.335273 1.767202 -0.904049 -14.827309 2.177001 -3.707584 2.151820 -1.077341 5.584390 -1.900930 -88.347081 -4.155458 2.697062 -1.530575 3.039068 4.062207 -1.286007 -13.497250 6.910580 -11.497309 22.430203 13.249475 -0.812194 11.953813 -12.975445 5.173276 0.086631 -1.180377 -0.426132 13.470525 13.540085 2.267212 8.264826 0.169508 -1.493231 4.440528 -5.329158 0.901689 0.000144 0.821541 0.151977
-9.364796 88.647332 -25.325549 135.573157 -10.583568 0.788953 0.514393 7.235114 0.695252 0.019989 0.308120 0.044686 0.035223 0.540477 0.078458 0.497279 6.771429 1.012224 1.028734 21.339559 0.767540 1.647379 3.831242 1.100249 0.138649 2.804738 -2.747998 -14.811555 3.448504 89.211071 7.429826 -9.303375 1.855622 -0.860439 -14.846675 2.176807 -3.721072 2.129391 -1.082698 5.633962 -1.895787 -88.267579 -4.158730 2.697993 -1.606602 3.060809 4.051018 -1.301199 -13.475948 6.457081 -11.424466 22.556222 14.267353 -0.698128 11.895042 -13.250466 5.447657 0.057422 -1.164014 -0.564109 13.426503 13.630791 2.262788 8.334573 0.153646 -1.516901 4.459934 -5.280073 0.974308 0.003348 0.739365 0.138896
-9.449797 88.673731 -25.423091 135.561313 -10.666019 0.719356 0.511587 7.321083 0.732409 0.020395 0.314762 0.043863 0.035922 0.551914 0.076988 0.500419 6.842376 0.984078 1.055490 21.337122 0.761686 1.697514 3.826757 1.082063 0.114386 2.810339 -2.705414 -14.805763 3.463017 89.178996 7.540368 -9.265933 1.938733 -0.815065 -14.863527 2.176686 -3.729697 2.124013 -1.089483 5.646841 -1.918383 -88.185275 -4.131015 2.695127 -1.669120 3.080477 4.041766 -1.305747 -13.477018 6.006617 -11.370992 22.658147 15.283909 -0.588607 11.848819 -13.470250 5.779505 0.033065 -1.170290 -0.710432 13.364551 13.726040 2.250445 8.393679 0.144567 -1.528243 4.476886 -5.246079 1.048158 0.006539 0.671843 0.121683
